<svg width="64" height="64" viewBox="0 0 64 64" fill="none" xmlns="http://www.w3.org/2000/svg">
<rect width="64" height="64" rx="8" fill="white"/>
<path d="M25.3027 18.0781C25.373 18.1406 25.5137 18.2695 25.7246 18.4648C25.9355 18.6602 26.1777 18.8828 26.4512 19.1328C26.7324 19.3828 27.0254 19.6445 27.3301 19.918C27.6426 20.1914 27.9316 20.4453 28.1973 20.6797C28.4707 20.9062 28.7051 21.0977 28.9004 21.2539C29.0957 21.4102 29.2207 21.4922 29.2754 21.5H26.8496C26.8027 21.4375 26.7363 21.3633 26.6504 21.2773C26.5645 21.1836 26.4746 21.0938 26.3809 21.0078C26.2871 20.9141 26.1934 20.8242 26.0996 20.7383C26.0137 20.6523 25.9395 20.582 25.877 20.5273C25.4941 20.1523 25.1074 19.7891 24.7168 19.4375C24.334 19.0781 23.9395 18.7227 23.5332 18.3711C23.2129 18.4102 22.8965 18.4375 22.584 18.4531C22.2715 18.4609 21.9551 18.4727 21.6348 18.4883C21.627 18.6992 21.623 18.9102 21.623 19.1211C21.623 19.3242 21.623 19.5312 21.623 19.7422C21.623 19.8125 21.623 19.9336 21.623 20.1055C21.623 20.2773 21.627 20.4609 21.6348 20.6562C21.6426 20.8516 21.6582 21.0312 21.6816 21.1953C21.7129 21.3516 21.752 21.4531 21.7988 21.5H19.748C19.7949 21.4531 19.834 21.3047 19.8652 21.0547C19.8965 20.7969 19.9199 20.4883 19.9355 20.1289C19.9512 19.7695 19.9629 19.3828 19.9707 18.9688C19.9785 18.5469 19.9824 18.1445 19.9824 17.7617C19.9824 17.3789 19.9785 17.0391 19.9707 16.7422C19.9707 16.4453 19.9707 16.2383 19.9707 16.1211C19.9707 16.0508 19.9707 15.9258 19.9707 15.7461C19.9785 15.5664 19.9785 15.3594 19.9707 15.125C19.9707 14.8906 19.9629 14.6445 19.9473 14.3867C19.9395 14.1289 19.9199 13.8906 19.8887 13.6719C19.8574 13.4531 19.8145 13.2695 19.7598 13.1211C19.7051 12.9727 19.6387 12.8867 19.5605 12.8633C19.584 12.8633 19.6582 12.8633 19.7832 12.8633C19.916 12.8633 20.0723 12.8633 20.252 12.8633C20.4395 12.8633 20.6348 12.8633 20.8379 12.8633C21.0488 12.8633 21.2441 12.8633 21.4238 12.8633C21.6113 12.8633 21.7676 12.8672 21.8926 12.875C22.0176 12.875 22.0918 12.875 22.1152 12.875C22.3965 12.875 22.752 12.8828 23.1816 12.8984C23.6191 12.9062 24.0801 12.9375 24.5645 12.9922C25.0566 13.0469 25.5488 13.1289 26.041 13.2383C26.5332 13.3398 26.9746 13.4883 27.3652 13.6836C27.7637 13.8789 28.0879 14.125 28.3379 14.4219C28.5879 14.7109 28.7129 15.0664 28.7129 15.4883C28.7129 15.8945 28.5957 16.2461 28.3613 16.543C28.127 16.832 27.834 17.0781 27.4824 17.2812C27.1387 17.4844 26.7676 17.6523 26.3691 17.7852C25.9785 17.9102 25.623 18.0078 25.3027 18.0781ZM26.5918 15.4648C26.5918 15.2305 26.4941 15.0352 26.2988 14.8789C26.1035 14.7148 25.8496 14.5859 25.5371 14.4922C25.2324 14.3906 24.8887 14.3164 24.5059 14.2695C24.1309 14.2227 23.7637 14.1914 23.4043 14.1758C23.0449 14.1523 22.7129 14.1406 22.4082 14.1406C22.1113 14.1406 21.8848 14.1406 21.7285 14.1406C21.6895 14.5781 21.6621 15.0156 21.6465 15.4531C21.6387 15.8828 21.6348 16.3164 21.6348 16.7539V17.0703C21.9395 17.0625 22.2441 17.0547 22.5488 17.0469C22.8535 17.0391 23.1543 17.0234 23.4512 17C23.5996 16.9922 23.7793 16.9766 23.9902 16.9531C24.2012 16.9297 24.4238 16.8984 24.6582 16.8594C24.8926 16.8125 25.123 16.7539 25.3496 16.6836C25.584 16.6133 25.791 16.5234 25.9707 16.4141C26.1582 16.3047 26.3066 16.1719 26.416 16.0156C26.5332 15.8594 26.5918 15.6758 26.5918 15.4648ZM33.2949 15.8516C33.7246 15.8516 34.1777 15.9141 34.6543 16.0391C35.1309 16.1562 35.5645 16.3398 35.9551 16.5898C36.3457 16.832 36.6699 17.1406 36.9277 17.5156C37.1855 17.8906 37.3145 18.332 37.3145 18.8398C37.3145 19.1758 37.252 19.4805 37.127 19.7539C37.002 20.0195 36.834 20.2578 36.623 20.4688C36.4199 20.6719 36.1816 20.8516 35.9082 21.0078C35.6348 21.1562 35.3457 21.2812 35.041 21.3828C34.7441 21.4766 34.4395 21.5469 34.127 21.5938C33.8145 21.6406 33.5215 21.6641 33.248 21.6641C32.8027 21.6641 32.3457 21.6133 31.877 21.5117C31.4082 21.4102 30.9785 21.2461 30.5879 21.0195C30.2051 20.793 29.8887 20.5 29.6387 20.1406C29.3965 19.7734 29.2754 19.3242 29.2754 18.793C29.2754 18.2695 29.4004 17.8242 29.6504 17.457C29.9082 17.082 30.2324 16.7773 30.623 16.543C31.0137 16.3008 31.4434 16.125 31.9121 16.0156C32.3887 15.9062 32.8496 15.8516 33.2949 15.8516ZM31.0332 18.7812C31.0332 19.0859 31.0996 19.3438 31.2324 19.5547C31.373 19.7656 31.5488 19.9375 31.7598 20.0703C31.9785 20.2031 32.2207 20.3008 32.4863 20.3633C32.752 20.418 33.0137 20.4453 33.2715 20.4453C33.5137 20.4453 33.7676 20.4141 34.0332 20.3516C34.2988 20.2891 34.5449 20.1914 34.7715 20.0586C34.998 19.9258 35.1855 19.7578 35.334 19.5547C35.4824 19.3438 35.5566 19.0938 35.5566 18.8047C35.5566 18.5156 35.4863 18.2656 35.3457 18.0547C35.2051 17.8359 35.0254 17.6562 34.8066 17.5156C34.5879 17.3672 34.3418 17.2578 34.0684 17.1875C33.8027 17.1172 33.5449 17.082 33.2949 17.082C33.0371 17.082 32.7754 17.1172 32.5098 17.1875C32.2441 17.25 32.002 17.3516 31.7832 17.4922C31.5645 17.625 31.3848 17.8008 31.2441 18.0195C31.1035 18.2305 31.0332 18.4844 31.0332 18.7812ZM38.3926 21.6055C38.4316 21.543 38.4707 21.3555 38.5098 21.043C38.5488 20.7227 38.5801 20.3438 38.6035 19.9062C38.6348 19.4609 38.6621 18.9844 38.6855 18.4766C38.709 17.9609 38.7285 17.4727 38.7441 17.0117C38.7676 16.5508 38.7832 16.1445 38.791 15.793C38.7988 15.4414 38.8027 15.2031 38.8027 15.0781C38.8027 15.0078 38.8027 14.8672 38.8027 14.6562C38.8027 14.4375 38.7949 14.207 38.7793 13.9648C38.7715 13.7227 38.752 13.5039 38.7207 13.3086C38.6895 13.1055 38.6426 12.9844 38.5801 12.9453L40.8184 12.9688C40.7793 12.9766 40.748 13.0234 40.7246 13.1094C40.709 13.1953 40.6973 13.2539 40.6895 13.2852C40.6035 13.6758 40.5488 14.0742 40.5254 14.4805C40.502 14.8789 40.4785 15.2773 40.4551 15.6758C40.416 16.3398 40.3848 16.9961 40.3613 17.6445C40.3457 18.293 40.3379 18.9492 40.3379 19.6133C40.3379 19.6758 40.3379 19.8086 40.3379 20.0117C40.3379 20.207 40.3418 20.4141 40.3496 20.6328C40.3574 20.8516 40.3691 21.0586 40.3848 21.2539C40.4004 21.4414 40.4277 21.5586 40.4668 21.6055H38.3926ZM41.9551 21.6055C41.9941 21.543 42.0332 21.3555 42.0723 21.043C42.1113 20.7227 42.1426 20.3438 42.166 19.9062C42.1973 19.4609 42.2246 18.9844 42.248 18.4766C42.2715 17.9609 42.291 17.4727 42.3066 17.0117C42.3301 16.5508 42.3457 16.1445 42.3535 15.793C42.3613 15.4414 42.3652 15.2031 42.3652 15.0781C42.3652 15.0078 42.3652 14.8672 42.3652 14.6562C42.3652 14.4375 42.3574 14.207 42.3418 13.9648C42.334 13.7227 42.3145 13.5039 42.2832 13.3086C42.252 13.1055 42.2051 12.9844 42.1426 12.9453L44.3809 12.9688C44.3418 12.9766 44.3105 13.0234 44.2871 13.1094C44.2715 13.1953 44.2598 13.2539 44.252 13.2852C44.166 13.6758 44.1113 14.0742 44.0879 14.4805C44.0645 14.8789 44.041 15.2773 44.0176 15.6758C43.9785 16.3398 43.9473 16.9961 43.9238 17.6445C43.9082 18.293 43.9004 18.9492 43.9004 19.6133C43.9004 19.6758 43.9004 19.8086 43.9004 20.0117C43.9004 20.207 43.9043 20.4141 43.9121 20.6328C43.9199 20.8516 43.9316 21.0586 43.9473 21.2539C43.9629 21.4414 43.9902 21.5586 44.0293 21.6055H41.9551ZM24.8047 32.2695C24.7891 32.668 24.7734 33.0703 24.7578 33.4766C24.7422 33.875 24.7344 34.2734 24.7344 34.6719C24.7344 34.8047 24.7617 34.918 24.8164 35.0117C24.8711 35.1055 24.9414 35.1836 25.0273 35.2461C25.1211 35.3008 25.2227 35.3398 25.332 35.3633C25.4492 35.3867 25.5664 35.3984 25.6836 35.3984C25.832 35.3984 25.9766 35.3867 26.1172 35.3633C26.2656 35.3398 26.4102 35.3086 26.5508 35.2695L26.3633 36.5234C25.9102 36.5234 25.4844 36.5117 25.0859 36.4883C24.6875 36.457 24.3398 36.3711 24.043 36.2305C23.7461 36.0898 23.5117 35.8672 23.3398 35.5625C23.168 35.25 23.082 34.8125 23.082 34.25C23.082 33.9219 23.0898 33.5938 23.1055 33.2656C23.1289 32.9297 23.1562 32.5977 23.1875 32.2695L21.4531 32.2812L21.5352 31.1328C21.8164 31.1562 22.1016 31.1719 22.3906 31.1797C22.6797 31.1797 22.9688 31.1797 23.2578 31.1797C23.2734 30.9531 23.2852 30.7344 23.293 30.5234C23.3008 30.3047 23.3047 30.082 23.3047 29.8555C23.3047 29.8086 23.3047 29.7148 23.3047 29.5742C23.3047 29.4336 23.2969 29.2891 23.2812 29.1406C23.2656 28.9844 23.2422 28.8438 23.2109 28.7188C23.1797 28.5938 23.1367 28.5195 23.082 28.4961L25.2383 28.5312C25.207 28.5312 25.1836 28.5547 25.168 28.6016C25.1523 28.6484 25.1367 28.6836 25.1211 28.707C25.0742 28.8555 25.0352 29.0352 25.0039 29.2461C24.9805 29.457 24.957 29.6797 24.9336 29.9141C24.918 30.1406 24.9023 30.3633 24.8867 30.582C24.8789 30.793 24.8711 30.9805 24.8633 31.1445C25.1289 31.1289 25.3984 31.1172 25.6719 31.1094C25.9453 31.0938 26.2148 31.0547 26.4805 30.9922V32.2578L24.8047 32.2695ZM32 30.875C32.3438 30.875 32.668 30.9258 32.9727 31.0273C33.2773 31.1211 33.543 31.2656 33.7695 31.4609C34.0039 31.6562 34.1875 31.8945 34.3203 32.1758C34.4531 32.457 34.5195 32.7812 34.5195 33.1484C34.5195 33.2344 34.5156 33.3672 34.5078 33.5469C34.5078 33.7266 34.5078 33.9297 34.5078 34.1562C34.5078 34.375 34.5078 34.6055 34.5078 34.8477C34.5078 35.0898 34.5117 35.3164 34.5195 35.5273C34.5273 35.7383 34.5391 35.9219 34.5547 36.0781C34.5703 36.2344 34.5938 36.3359 34.625 36.3828H32.6211C32.7383 36.0469 32.832 35.6836 32.9023 35.293C32.9727 34.9023 33.0078 34.5273 33.0078 34.168C33.0078 33.8789 32.9766 33.6055 32.9141 33.3477C32.8594 33.0898 32.7617 32.8672 32.6211 32.6797C32.4883 32.4844 32.3086 32.332 32.082 32.2227C31.8633 32.1133 31.5898 32.0586 31.2617 32.0586C30.918 32.0586 30.5859 32.1445 30.2656 32.3164C29.9531 32.4883 29.6875 32.7031 29.4688 32.9609C29.4609 33.2109 29.457 33.4648 29.457 33.7227C29.457 33.9727 29.457 34.2266 29.457 34.4844C29.457 34.5234 29.457 34.6016 29.457 34.7188C29.457 34.8359 29.457 34.9727 29.457 35.1289C29.457 35.2852 29.4609 35.4492 29.4688 35.6211C29.4766 35.793 29.4844 35.9531 29.4922 36.1016C29.5 36.25 29.5117 36.3789 29.5273 36.4883C29.543 36.5898 29.5625 36.6523 29.5859 36.6758H27.5117C27.543 36.6367 27.5703 36.5039 27.5938 36.2773C27.625 36.0508 27.6523 35.7812 27.6758 35.4688C27.707 35.1484 27.7344 34.8047 27.7578 34.4375C27.7812 34.0625 27.8008 33.7109 27.8164 33.3828C27.832 33.0469 27.8438 32.7539 27.8516 32.5039C27.8672 32.2539 27.8789 32.0859 27.8867 32C27.9102 31.3906 27.9219 30.7734 27.9219 30.1484C27.9219 30.1094 27.9219 30.0352 27.9219 29.9258C27.9219 29.8086 27.918 29.6758 27.9102 29.5273C27.9102 29.3711 27.9062 29.2109 27.8984 29.0469C27.8906 28.875 27.8789 28.7188 27.8633 28.5781C27.8477 28.4297 27.8242 28.3047 27.793 28.2031C27.7695 28.1016 27.7383 28.043 27.6992 28.0273L29.9375 28.0508C29.8984 28.0508 29.8672 28.082 29.8438 28.1445C29.8203 28.207 29.8047 28.25 29.7969 28.2734C29.7344 28.4766 29.6914 28.6914 29.668 28.918C29.6523 29.1367 29.6367 29.3516 29.6211 29.5625C29.5898 29.8984 29.5664 30.2344 29.5508 30.5703C29.5352 30.8984 29.5195 31.2305 29.5039 31.5664C29.8555 31.3164 30.2539 31.1406 30.6992 31.0391C31.1445 30.9297 31.5781 30.875 32 30.875ZM39.0781 36.6758C38.6953 36.6758 38.2891 36.625 37.8594 36.5234C37.4297 36.4219 37.0312 36.2656 36.6641 36.0547C36.3047 35.8359 36.0039 35.5625 35.7617 35.2344C35.5273 34.9062 35.4102 34.5156 35.4102 34.0625C35.4102 33.5078 35.5195 33.0117 35.7383 32.5742C35.957 32.1367 36.25 31.7695 36.6172 31.4727C36.9844 31.168 37.4102 30.9375 37.8945 30.7812C38.3789 30.6172 38.8867 30.5352 39.418 30.5352C39.8398 30.5352 40.2148 30.6055 40.543 30.7461C40.8711 30.8789 41.1445 31.0703 41.3633 31.3203C41.582 31.5625 41.7461 31.8516 41.8555 32.1875C41.9727 32.5234 42.0312 32.8945 42.0312 33.3008C42.0312 33.6914 41.9727 34.0664 41.8555 34.4258H36.9688C37.0469 34.6602 37.168 34.8516 37.332 35C37.5039 35.1484 37.6953 35.2656 37.9062 35.3516C38.125 35.4297 38.3516 35.4844 38.5859 35.5156C38.8281 35.5469 39.0547 35.5625 39.2656 35.5625C39.3984 35.5625 39.5742 35.5547 39.793 35.5391C40.0195 35.5156 40.25 35.4844 40.4844 35.4453C40.7188 35.3984 40.9375 35.3438 41.1406 35.2812C41.3516 35.2188 41.5078 35.1406 41.6094 35.0469L42.1836 36.0547C41.668 36.25 41.1602 36.4023 40.6602 36.5117C40.1602 36.6211 39.6328 36.6758 39.0781 36.6758ZM39.0781 31.6367C38.8438 31.6367 38.6094 31.6836 38.375 31.7773C38.1484 31.8711 37.9414 31.9961 37.7539 32.1523C37.5664 32.3008 37.4023 32.4805 37.2617 32.6914C37.1211 32.8945 37.0195 33.1055 36.957 33.3242H40.3086C40.332 33.0898 40.332 32.8711 40.3086 32.668C40.293 32.457 40.2422 32.2773 40.1562 32.1289C40.0703 31.9727 39.9414 31.8516 39.7695 31.7656C39.5977 31.6797 39.3672 31.6367 39.0781 31.6367ZM20.0879 42.8633C20.5488 42.8633 21.0645 42.8984 21.6348 42.9688C22.2051 43.0312 22.7793 43.1367 23.3574 43.2852C23.9355 43.4258 24.498 43.6172 25.0449 43.8594C25.5918 44.1016 26.0762 44.3984 26.498 44.75C26.9199 45.0938 27.2598 45.5 27.5176 45.9688C27.7754 46.4375 27.9043 46.9727 27.9043 47.5742C27.9043 48.2305 27.7559 48.7852 27.459 49.2383C27.1699 49.6836 26.7832 50.0508 26.2988 50.3398C25.8223 50.6289 25.2793 50.8555 24.6699 51.0195C24.0605 51.1758 23.4395 51.2891 22.8066 51.3594C22.1738 51.4297 21.5605 51.4727 20.9668 51.4883C20.373 51.4961 19.8496 51.5 19.3965 51.5H17.9902C18.0137 51.4531 18.0332 51.3359 18.0488 51.1484C18.0645 50.9609 18.0762 50.7383 18.084 50.4805C18.0996 50.2148 18.1113 49.9297 18.1191 49.625C18.127 49.3203 18.1309 49.0352 18.1309 48.7695C18.1387 48.4961 18.1426 48.2578 18.1426 48.0547C18.1426 47.8438 18.1426 47.6992 18.1426 47.6211C18.1426 47.5352 18.1426 47.3633 18.1426 47.1055C18.1426 46.8398 18.1387 46.5391 18.1309 46.2031C18.123 45.8594 18.1113 45.4961 18.0957 45.1133C18.0879 44.7305 18.0684 44.3789 18.0371 44.0586C18.0137 43.7305 17.9824 43.457 17.9434 43.2383C17.9043 43.0117 17.8574 42.8828 17.8027 42.8516L20.0879 42.8633ZM19.9121 50.457C20.0137 50.457 20.1152 50.4609 20.2168 50.4688C20.3184 50.4688 20.4199 50.4688 20.5215 50.4688C20.8184 50.4688 21.1621 50.457 21.5527 50.4336C21.9512 50.4102 22.3613 50.3633 22.7832 50.293C23.2051 50.2227 23.6191 50.125 24.0254 50C24.4316 49.875 24.7949 49.707 25.1152 49.4961C25.4355 49.2852 25.6934 49.0312 25.8887 48.7344C26.0918 48.4297 26.1934 48.0703 26.1934 47.6562C26.1934 47.2031 26.1035 46.7969 25.9238 46.4375C25.752 46.0781 25.5176 45.7617 25.2207 45.4883C24.9316 45.207 24.5918 44.9727 24.2012 44.7852C23.8184 44.5898 23.416 44.4297 22.9941 44.3047C22.5801 44.1797 22.1621 44.0898 21.7402 44.0352C21.3184 43.9805 20.9238 43.9531 20.5566 43.9531C20.4551 43.9531 20.3535 43.957 20.252 43.9648C20.1504 43.9648 20.0488 43.9688 19.9473 43.9766C19.9082 44.6094 19.8848 45.2383 19.877 45.8633C19.8691 46.4883 19.8652 47.1172 19.8652 47.75C19.8652 48.2031 19.8652 48.6562 19.8652 49.1094C19.873 49.5547 19.8887 50.0039 19.9121 50.457ZM28.9941 46.0156L31.0566 46.0273C31.0176 46.0352 30.9863 46.0703 30.9629 46.1328C30.9473 46.1875 30.9316 46.2305 30.916 46.2617C30.8613 46.457 30.8184 46.6953 30.7871 46.9766C30.7637 47.25 30.7441 47.5391 30.7285 47.8438C30.7207 48.1406 30.7129 48.4297 30.7051 48.7109C30.7051 48.9922 30.7051 49.2383 30.7051 49.4492C30.7051 49.5195 30.7051 49.6641 30.7051 49.8828C30.7051 50.0938 30.709 50.3203 30.7168 50.5625C30.7324 50.8047 30.752 51.0273 30.7754 51.2305C30.7988 51.4258 30.834 51.5469 30.8809 51.5938H28.8066C28.8457 51.5391 28.8848 51.4102 28.9238 51.207C28.9629 51.0039 28.9941 50.7617 29.0176 50.4805C29.0488 50.1992 29.0762 49.8984 29.0996 49.5781C29.123 49.25 29.1426 48.9414 29.1582 48.6523C29.1816 48.3555 29.1973 48.0938 29.2051 47.8672C29.2129 47.6328 29.2168 47.4727 29.2168 47.3867C29.2168 47.3398 29.2168 47.2461 29.2168 47.1055C29.2168 46.9648 29.209 46.8203 29.1934 46.6719C29.1777 46.5156 29.1543 46.375 29.123 46.25C29.0918 46.1172 29.0488 46.0391 28.9941 46.0156ZM30.0137 43.1797C30.1152 43.1797 30.2285 43.1953 30.3535 43.2266C30.4785 43.2578 30.5918 43.3047 30.6934 43.3672C30.8027 43.4219 30.8926 43.5 30.9629 43.6016C31.0332 43.6953 31.0684 43.8047 31.0684 43.9297C31.0684 44.0547 31.0332 44.1641 30.9629 44.2578C30.8926 44.3516 30.8027 44.4297 30.6934 44.4922C30.5918 44.5469 30.4785 44.5898 30.3535 44.6211C30.2285 44.6523 30.1152 44.668 30.0137 44.668C29.9043 44.668 29.7871 44.6523 29.6621 44.6211C29.5449 44.5898 29.4316 44.5469 29.3223 44.4922C29.2207 44.4297 29.1348 44.3516 29.0645 44.2578C28.9941 44.1641 28.959 44.0547 28.959 43.9297C28.959 43.8047 28.9941 43.6953 29.0645 43.6016C29.1348 43.5 29.2207 43.4219 29.3223 43.3672C29.4316 43.3047 29.5449 43.2578 29.6621 43.2266C29.7871 43.1953 29.9043 43.1797 30.0137 43.1797ZM36.7754 48.1836C36.877 48.0742 36.9785 47.9453 37.0801 47.7969C37.1816 47.6484 37.2324 47.5 37.2324 47.3516C37.2324 47.2109 37.1816 47.0977 37.0801 47.0117C36.9785 46.918 36.8574 46.8477 36.7168 46.8008C36.5762 46.7539 36.4277 46.7227 36.2715 46.707C36.123 46.6836 35.998 46.6719 35.8965 46.6719C35.5762 46.6719 35.2754 46.7305 34.9941 46.8477C34.7129 46.957 34.4668 47.1133 34.2559 47.3164C34.0449 47.5117 33.877 47.7461 33.752 48.0195C33.6348 48.293 33.5762 48.5938 33.5762 48.9219C33.5762 49.2266 33.6387 49.4688 33.7637 49.6484C33.8965 49.8281 34.0605 49.9648 34.2559 50.0586C34.459 50.1445 34.6855 50.1992 34.9355 50.2227C35.1855 50.2461 35.4355 50.2578 35.6855 50.2578C36.0684 50.2578 36.4668 50.2266 36.8809 50.1641C37.2949 50.1016 37.6855 50.0156 38.0527 49.9062L38.3691 50.9492C37.9941 51.0898 37.5762 51.1953 37.1152 51.2656C36.6543 51.3281 36.2207 51.3594 35.8145 51.3594C35.5723 51.3594 35.3066 51.3477 35.0176 51.3242C34.7363 51.293 34.4512 51.2461 34.1621 51.1836C33.873 51.1133 33.5918 51.0234 33.3184 50.9141C33.0527 50.8047 32.8145 50.6641 32.6035 50.4922C32.3926 50.3203 32.2246 50.1172 32.0996 49.8828C31.9746 49.6406 31.9121 49.3633 31.9121 49.0508C31.9121 48.4805 32.0488 47.9805 32.3223 47.5508C32.6035 47.1133 32.959 46.75 33.3887 46.4609C33.8262 46.1641 34.3066 45.9414 34.8301 45.793C35.3613 45.6445 35.8809 45.5703 36.3887 45.5703C36.6699 45.5703 36.9512 45.5938 37.2324 45.6406C37.5137 45.6797 37.7676 45.7578 37.9941 45.875C38.2207 45.9922 38.4043 46.1562 38.5449 46.3672C38.6855 46.5781 38.7559 46.8516 38.7559 47.1875C38.7559 47.3594 38.7402 47.5273 38.709 47.6914C38.6777 47.8555 38.6387 48.0195 38.5918 48.1836H36.7754ZM43.0918 51.6758C42.709 51.6758 42.3027 51.625 41.873 51.5234C41.4434 51.4219 41.0449 51.2656 40.6777 51.0547C40.3184 50.8359 40.0176 50.5625 39.7754 50.2344C39.541 49.9062 39.4238 49.5156 39.4238 49.0625C39.4238 48.5078 39.5332 48.0117 39.752 47.5742C39.9707 47.1367 40.2637 46.7695 40.6309 46.4727C40.998 46.168 41.4238 45.9375 41.9082 45.7812C42.3926 45.6172 42.9004 45.5352 43.4316 45.5352C43.8535 45.5352 44.2285 45.6055 44.5566 45.7461C44.8848 45.8789 45.1582 46.0703 45.377 46.3203C45.5957 46.5625 45.7598 46.8516 45.8691 47.1875C45.9863 47.5234 46.0449 47.8945 46.0449 48.3008C46.0449 48.6914 45.9863 49.0664 45.8691 49.4258H40.9824C41.0605 49.6602 41.1816 49.8516 41.3457 50C41.5176 50.1484 41.709 50.2656 41.9199 50.3516C42.1387 50.4297 42.3652 50.4844 42.5996 50.5156C42.8418 50.5469 43.0684 50.5625 43.2793 50.5625C43.4121 50.5625 43.5879 50.5547 43.8066 50.5391C44.0332 50.5156 44.2637 50.4844 44.498 50.4453C44.7324 50.3984 44.9512 50.3438 45.1543 50.2812C45.3652 50.2188 45.5215 50.1406 45.623 50.0469L46.1973 51.0547C45.6816 51.25 45.1738 51.4023 44.6738 51.5117C44.1738 51.6211 43.6465 51.6758 43.0918 51.6758ZM43.0918 46.6367C42.8574 46.6367 42.623 46.6836 42.3887 46.7773C42.1621 46.8711 41.9551 46.9961 41.7676 47.1523C41.5801 47.3008 41.416 47.4805 41.2754 47.6914C41.1348 47.8945 41.0332 48.1055 40.9707 48.3242H44.3223C44.3457 48.0898 44.3457 47.8711 44.3223 47.668C44.3066 47.457 44.2559 47.2773 44.1699 47.1289C44.084 46.9727 43.9551 46.8516 43.7832 46.7656C43.6113 46.6797 43.3809 46.6367 43.0918 46.6367Z" fill="black"/>
</svg>
